<svg id="Layer_1" data-name="Layer 1" xmlns="http://www.w3.org/2000/svg" viewBox="0 0 411.54 128.77"><defs><style>.cls-1,.cls-2{fill:#231f20;}.cls-2{font-size:21px;font-family:Garamond;letter-spacing:0.2em;}</style></defs><title>fabriciocrecktenwall_logo</title><path class="cls-1" d="M129.07,390.56a44.34,44.34,0,0,0,1.13,10.25,26.82,26.82,0,0,1,8.43,4.82q2.94,2.69,2.94,4.81a2.22,2.22,0,0,1-1,1.94,5.11,5.11,0,0,1-2.87.68q-2.62,0-5.25-3.06a20.82,20.82,0,0,1-4-8.81q-11-3.87-25.88-3.88c-1.5,0-2.66.05-3.5.13l-3.87.12c-1.67,0-1.36-.66.93-2s6.17-2.79,11.63-4.37a134.14,134.14,0,0,1,19.69-3.88,78.43,78.43,0,0,1,3.93-21.75,61.8,61.8,0,0,1,8.82-17.87q5.25-7,10.62-7a3.57,3.57,0,0,1,2.81,1.06,4.08,4.08,0,0,1,.94,2.81q0,2.63-2.44,7.25a38.37,38.37,0,0,1-6.56,8.88,25.14,25.14,0,0,1-9,6.12,47.36,47.36,0,0,0,12.31-11.68q4.58-6.44,4.57-10.69c0-1.75-.75-2.63-2.25-2.63q-4.38,0-9.32,7a68.45,68.45,0,0,0-8.5,17.63,80.58,80.58,0,0,0-4.18,20.62,225.49,225.49,0,0,1,26.12-1.5q9.26,0,20,.75-8.5-.24-12.12-.25a251.71,251.71,0,0,0-34.13,2.13Zm-25.37,6.13q14.63,0,24.5,3.5a56.59,56.59,0,0,1-.88-9.88v-1.87q-18.61,2.63-25.12,5.5c-4.33,1.92-6.63,2.92-6.88,3C97.32,396.77,100.12,396.69,103.7,396.69Zm36.5,13.37c0-1.08-.84-2.39-2.5-3.93a23.4,23.4,0,0,0-7.25-4.19,21,21,0,0,0,3.06,7.19q1.94,2.69,4.19,2.68C139.36,411.81,140.2,411.23,140.2,410.06Z" transform="translate(-94.15 -312.44)"/><path class="cls-1" d="M185,374.88a27.25,27.25,0,0,1-5.94,3.12,17.22,17.22,0,0,1-6.25,1.31,13,13,0,0,1-6.19-1.25,21.56,21.56,0,0,1-4.56-3.37c-1-1-1.71-1.5-2.12-1.5s-.84.31-1.5.94a22.35,22.35,0,0,0-1.75,1.81c-.5.58-.88,1-1.13,1.37q-2.88,3.88-4,3.88a1.36,1.36,0,0,1-1.06-.5,1.79,1.79,0,0,1-.44-1.25q0-2,2.19-4.69a24.26,24.26,0,0,1,4.94-4.62q2.75-1.94,4.37-1.94a1.55,1.55,0,0,1,1,.31.91.91,0,0,1,.38.69,1.7,1.7,0,0,1-.63,1.12,1,1,0,0,0,.13-.62c0-.58-.25-.88-.75-.88-1.17,0-2.53.74-4.07,2.19a23.82,23.82,0,0,0-4,5,9.71,9.71,0,0,0-1.68,4.06,26.14,26.14,0,0,0,2.62-2.87c1.75-1.92,3-3.29,3.88-4.13a3.45,3.45,0,0,1,2.25-1.25,2.62,2.62,0,0,1,1.56.5,21.5,21.5,0,0,1,1.94,1.75,15.86,15.86,0,0,0,3.68,3.19,9.25,9.25,0,0,0,4.94,1.19,17.29,17.29,0,0,0,7.94-1.88,43.89,43.89,0,0,0,7.31-4.75A8.58,8.58,0,0,1,185,374.88Z" transform="translate(-94.15 -312.44)"/><path class="cls-1" d="M193.13,371.5c2.88-2.45,5.81-3.69,8.81-3.69a4.88,4.88,0,0,1,3,.94,3,3,0,0,1,1.25,2.56c0,1.92-1.18,3.74-3.56,5.44a12.36,12.36,0,0,1-7.31,2.56,4.59,4.59,0,0,1-3.19-1.06,2.27,2.27,0,0,1-.94-2.19,4.23,4.23,0,0,0,3.38,2,10.19,10.19,0,0,0,6.19-2.31q3.06-2.31,3.06-4.81c0-1.33-.71-2-2.13-2a12.14,12.14,0,0,0-6.37,2,18.87,18.87,0,0,0-5.44,5,9.86,9.86,0,0,0-2.19,5.75c0,.5-.16.75-.5.75s-.48-.21-.68-.63a3.93,3.93,0,0,1-.32-1.75,42.1,42.1,0,0,1,1.75-10.93,94.08,94.08,0,0,1,4.13-11.88,50,50,0,0,1,4-7.94c.66-1.08,1.37-1.62,2.12-1.62s.84.25.5.75a74.65,74.65,0,0,0-6.62,13.25,77.39,77.39,0,0,0-4.63,17.25A18.73,18.73,0,0,1,193.13,371.5Z" transform="translate(-94.15 -312.44)"/><path class="cls-1" d="M238.57,379.81a103,103,0,0,0,12-7.37q-1,1.5-5.38,4.37a61.44,61.44,0,0,1-9.43,5.07,22,22,0,0,1-8.19,2.18c-1.67,0-2.5-.66-2.5-2a11.32,11.32,0,0,1,1-3.75,12.75,12.75,0,0,0,.75-2.87,1.59,1.59,0,0,0-.75-1.38,7.71,7.71,0,0,0-2-.87,9.63,9.63,0,0,1-2.69-1.13,2.5,2.5,0,0,1-.94-2.25,3.85,3.85,0,0,1,.75-2.37,2.26,2.26,0,0,1,1.88-1,1.45,1.45,0,0,1,1.19.56,2.51,2.51,0,0,1,.43,1.56,6.62,6.62,0,0,1-1.37,3.63,11.48,11.48,0,0,0,2.37.75,8.48,8.48,0,0,1,2.44.87,1.78,1.78,0,0,1,.81,1.63,9.77,9.77,0,0,1-1.25,3.37,6.54,6.54,0,0,0-1.37,3.5.88.88,0,0,0,1,1Q231.94,383.31,238.57,379.81Zm-15.63-7.75a6.58,6.58,0,0,0,.82-1.75,6.22,6.22,0,0,0,.31-1.75c0-.83-.29-1.25-.88-1.25q-.49,0-.93.75a3.35,3.35,0,0,0-.44,1.75A2.71,2.71,0,0,0,222.94,372.06Z" transform="translate(-94.15 -312.44)"/><path class="cls-1" d="M248.19,380.94a33,33,0,0,1,.69-5.88,31.77,31.77,0,0,1,1.44-5.5,2.32,2.32,0,0,1,2.12-1.37,1.47,1.47,0,0,1,.94.25c.21.17.23.33.06.5a27,27,0,0,0-3.19,6.94,38.25,38.25,0,0,0-1.81,6.93A5.88,5.88,0,0,1,248.19,380.94Zm6.38-19.19c-2-.62-3-1.23-3-1.81,0-.42.41-.63,1.25-.63l1,.13c-.59.17-.63.42-.13.75a16.7,16.7,0,0,0,2.31,1.19c1.05.46,1.9.85,2.57,1.18A11.78,11.78,0,0,1,254.57,361.75Z" transform="translate(-94.15 -312.44)"/><path class="cls-1" d="M295.57,375.81a65.57,65.57,0,0,1-11.19,4.75,37,37,0,0,1-11.44,2.13,7.35,7.35,0,0,1-4.12-1.06,3.55,3.55,0,0,1-1.63-3.19c0-1.42.73-3.06,2.19-4.94a21.67,21.67,0,0,1,5.37-4.87,11.1,11.1,0,0,1,5.94-2.07,3.05,3.05,0,0,1,1.88.69c.58.46.79.94.62,1.44a3.32,3.32,0,0,0-2.25-.75,9.66,9.66,0,0,0-5.12,1.87,21.07,21.07,0,0,0-4.94,4.44,7.65,7.65,0,0,0-2.06,4.56c0,1.92,1.66,2.88,5,2.88q5.37,0,13.81-3.13t12.69-6.75C300.32,372.73,298.73,374.06,295.57,375.81Z" transform="translate(-94.15 -312.44)"/><path class="cls-1" d="M297.07,380.94a32.82,32.82,0,0,1,.68-5.88,31.77,31.77,0,0,1,1.44-5.5,2.34,2.34,0,0,1,2.13-1.37,1.45,1.45,0,0,1,.93.25c.21.17.23.33.07.5a26.37,26.37,0,0,0-3.19,6.94,37.41,37.41,0,0,0-1.81,6.93A5.88,5.88,0,0,1,297.07,380.94Zm6.37-19.19c-2-.62-3-1.23-3-1.81,0-.42.42-.63,1.25-.63l1,.13q-.87.26-.12.75a16.13,16.13,0,0,0,2.31,1.19c1,.46,1.89.85,2.56,1.18A11.78,11.78,0,0,1,303.44,361.75Z" transform="translate(-94.15 -312.44)"/><path class="cls-1" d="M355.69,371.06c-.25.75-1.67,1.59-4.25,2.5a25.93,25.93,0,0,1-8,1.5q-8.13,0-13-1.87a14.43,14.43,0,0,1-2.94,5.94,6.05,6.05,0,0,1-4.69,2.43,3.82,3.82,0,0,1-3-1.25,4.83,4.83,0,0,1-1.12-3.37,10.28,10.28,0,0,1,1.5-5.38,13.89,13.89,0,0,1,3.5-4,12.07,12.07,0,0,1-.88-4.37,3.55,3.55,0,0,1,.75-2.38,2.51,2.51,0,0,1,2-.87q2.38,0,3.94,2.62a12.29,12.29,0,0,1,1.56,6.38,12.82,12.82,0,0,1-.37,3.12,28.85,28.85,0,0,0,12.25,2.38A24.3,24.3,0,0,0,355.69,371.06Zm-28.63,6.75a15.2,15.2,0,0,0,2.5-5.12,12.27,12.27,0,0,1-5.37-4.25,12.94,12.94,0,0,0-3.13,8.25,4,4,0,0,0,.63,2.37,1.91,1.91,0,0,0,1.62.88A4.66,4.66,0,0,0,327.06,377.81Zm-2.12-11.12.37-.13a2.32,2.32,0,0,1,.94-.31q.57-.06.69.06a7.33,7.33,0,0,0-1.63,1,12.25,12.25,0,0,0,4.5,4.25,19.67,19.67,0,0,0,.25-2.62,12,12,0,0,0-1.25-5.81c-.83-1.54-1.87-2.32-3.12-2.32a1.26,1.26,0,0,0-1.06.63,2.72,2.72,0,0,0-.44,1.62A8,8,0,0,0,324.94,366.69Z" transform="translate(-94.15 -312.44)"/><path class="cls-1" d="M412.75,375.31q-6.31,3.51-15.31,9.13-8.38,5.25-13.81,8.37A65.21,65.21,0,0,1,372.19,398a35.89,35.89,0,0,1-11.75,2.06,11.28,11.28,0,0,1-9.06-3.87q-3.31-3.87-3.32-10.5,0-11.13,10.44-25.63a101.31,101.31,0,0,1,25.69-24.81q15.24-10.31,28.5-10.31a14.41,14.41,0,0,1,7.19,1.81,13.59,13.59,0,0,1,5,4.81,12,12,0,0,1,1.81,6.25,10.47,10.47,0,0,1-2.5,6.88,14.83,14.83,0,0,0,1-5.5,13.35,13.35,0,0,0-3.5-9.25,11.61,11.61,0,0,0-9-3.88q-12.51,0-27.13,10.44a104.11,104.11,0,0,0-24.81,24.88q-10.19,14.43-10.19,24.93a14.33,14.33,0,0,0,2.69,9.07,8.66,8.66,0,0,0,7.19,3.43q7.13,0,16.62-4.56t23.75-12.94q10.38-6.12,15.94-9t8.94-2.87A87.57,87.57,0,0,0,412.75,375.31Z" transform="translate(-94.15 -312.44)"/><path class="cls-1" d="M505.69,371.19q-1.12,2.13-9.5,6.12a131.42,131.42,0,0,1-18.75,7.13,63.38,63.38,0,0,1-17.75,3.12q-5.51,0-8.75-2.68a8.84,8.84,0,0,1-3.25-7.19q0-5.37,6-12.38t17.37-17.75q10.63-10.12,15.69-15.93t5.06-10.19q0-7.5-10.37-7.5-11.13,0-26.44,6.31a103.51,103.51,0,0,0-26.31,15.31q-11,9-11,16.63a10.44,10.44,0,0,0,4.87,9q4.88,3.38,14.88,5-9.26,0-15.25-3.75t-6-10.25q0-7.87,11.19-17.25A104.2,104.2,0,0,1,454.19,319q15.62-6.56,27.25-6.56c3.91,0,7,.75,9.12,2.25a7.66,7.66,0,0,1,3.25,6.75q0,5.88-5.75,12.69a192.06,192.06,0,0,1-16.87,16.93,203.86,203.86,0,0,0-16,16q-5.25,6.13-5.25,11.38a6.52,6.52,0,0,0,2.69,5.75,12.82,12.82,0,0,0,7.43,1.87,63.38,63.38,0,0,0,15.82-2.43,134.69,134.69,0,0,0,17.5-5.94A60.53,60.53,0,0,0,505.69,371.19Zm-67.38,18.87a80.91,80.91,0,0,1,4.07-24,117.32,117.32,0,0,1,9.06-22q5-9,7.12-8c0-.16-.18-.39-.56-.68a1.77,1.77,0,0,0-1.06-.44q-3.37,0-8,9a115.65,115.65,0,0,0-8.06,20.94q-3.45,11.94-3.44,19.56A13.93,13.93,0,0,0,438.31,390.06Z" transform="translate(-94.15 -312.44)"/><text class="cls-2" transform="translate(101.16 122.33)">PHOTOGRAPHY</text></svg>